<svg id="Layer_1" data-name="Layer 1" xmlns="http://www.w3.org/2000/svg" viewBox="0 0 381.02 95.13"><path d="M101,23.32a3.78,3.78,0,0,1,7.56,0v48.5a3.78,3.78,0,0,1-7.56,0V23.32ZM0,31.82a3.78,3.78,0,1,1,7.56,0V63.31a3.78,3.78,0,0,1-7.56,0V31.82Zm14.42-8.5a3.78,3.78,0,0,1,7.56,0v48.5a3.78,3.78,0,0,1-7.56,0V23.32ZM28.9,13.9a3.72,3.72,0,1,1,7.44,0V81.24a3.72,3.72,0,1,1-7.44,0V13.9ZM43.26,3.78a3.78,3.78,0,0,1,7.56,0V91.35a3.78,3.78,0,0,1-7.56,0V3.78Zm43.27,28a3.78,3.78,0,1,1,7.56,0V63.31a3.78,3.78,0,0,1-7.56,0V31.82Zm-14.42-8.5a3.78,3.78,0,0,1,7.56,0v48.5a3.78,3.78,0,0,1-7.56,0V23.32ZM57.74,13.9a3.72,3.72,0,1,1,7.44,0V81.24a3.72,3.72,0,1,1-7.44,0V13.9Zm57.69,0a3.72,3.72,0,1,1,7.44,0V81.24a3.72,3.72,0,1,1-7.44,0V13.9Z" fill="#aebac1"/><path d="M230,23.32a3.78,3.78,0,1,1,7.56,0v48.5a3.78,3.78,0,0,1-7.56,0V23.32Zm-101,8.5a3.78,3.78,0,0,1,7.56,0V63.31a3.78,3.78,0,0,1-7.56,0V31.82Zm14.42-8.5a3.78,3.78,0,0,1,7.56,0v48.5a3.78,3.78,0,0,1-7.56,0V23.32ZM158,13.9a3.72,3.72,0,1,1,7.44,0V81.24a3.72,3.72,0,1,1-7.44,0V13.9ZM172.33,3.78a3.78,3.78,0,1,1,7.56,0V91.35a3.78,3.78,0,0,1-7.56,0V3.78Zm43.27,28a3.78,3.78,0,1,1,7.56,0V63.31a3.78,3.78,0,0,1-7.56,0V31.82Zm-14.42-8.5a3.78,3.78,0,0,1,7.56,0v48.5a3.78,3.78,0,0,1-7.56,0V23.32ZM186.81,13.9a3.72,3.72,0,1,1,7.44,0V81.24a3.72,3.72,0,1,1-7.44,0V13.9Zm57.69,0a3.72,3.72,0,1,1,7.44,0V81.24a3.72,3.72,0,1,1-7.44,0V13.9Z" fill="#aebac1"/><path d="M359.1,23.32a3.78,3.78,0,0,1,7.56,0v48.5a3.78,3.78,0,0,1-7.56,0V23.32Zm-101,8.5a3.78,3.78,0,1,1,7.56,0V63.31a3.78,3.78,0,1,1-7.56,0V31.82Zm14.42-8.5a3.78,3.78,0,1,1,7.56,0v48.5a3.78,3.78,0,1,1-7.56,0V23.32Zm14.48-9.42a3.72,3.72,0,1,1,7.44,0V81.24a3.72,3.72,0,1,1-7.44,0V13.9ZM301.41,3.78a3.78,3.78,0,0,1,7.56,0V91.35a3.78,3.78,0,0,1-7.56,0V3.78Zm43.27,28a3.78,3.78,0,0,1,7.56,0V63.31a3.78,3.78,0,0,1-7.56,0V31.82Zm-14.42-8.5a3.78,3.78,0,1,1,7.56,0v48.5a3.78,3.78,0,1,1-7.56,0V23.32ZM315.89,13.9a3.72,3.72,0,1,1,7.44,0V81.24a3.72,3.72,0,1,1-7.44,0V13.9Zm57.69,0a3.72,3.72,0,1,1,7.44,0V81.24a3.72,3.72,0,1,1-7.44,0V13.9Z" fill="#aebac1"/></svg>