<?xml version="1.0" encoding="utf-8"?>
<!-- Generator: Adobe Illustrator 25.2.3, SVG Export Plug-In . SVG Version: 6.00 Build 0)  -->
<svg version="1.1" id="Layer_1" xmlns="http://www.w3.org/2000/svg" xmlns:xlink="http://www.w3.org/1999/xlink" x="0px" y="0px"
	 viewBox="0 0 381 95.1" style="enable-background:new 0 0 381 95.1;" xml:space="preserve">
<style type="text/css">
	.st0{fill:#AEBAC1;}
</style>
<g>
	<path class="st0" d="M100.9,23.3c0-2.1,1.7-3.8,3.8-3.8s3.8,1.7,3.8,3.8v48.5c0,2.1-1.7,3.8-3.8,3.8s-3.8-1.7-3.8-3.8V23.3
		L100.9,23.3z M0,31.8C0,29.7,1.7,28,3.8,28s3.8,1.7,3.8,3.8v31.5c0,2.1-1.7,3.8-3.8,3.8S0,65.4,0,63.3V31.8L0,31.8z M14.4,23.3
		c0-2.1,1.7-3.8,3.8-3.8s3.8,1.7,3.8,3.8v48.5c0,2.1-1.7,3.8-3.8,3.8s-3.8-1.7-3.8-3.8L14.4,23.3L14.4,23.3z M28.9,13.9
		c0-2.1,1.7-3.8,3.7-3.8c2.1,0,3.7,1.7,3.7,3.8v67.3c0,2.1-1.7,3.8-3.7,3.8c-2.1,0-3.7-1.7-3.7-3.8V13.9L28.9,13.9z M43.3,3.8
		C43.3,1.7,44.9,0,47,0s3.8,1.7,3.8,3.8v87.6c0,2.1-1.7,3.8-3.8,3.8s-3.8-1.7-3.8-3.8V3.8L43.3,3.8z M86.5,31.8
		c0-2.1,1.7-3.8,3.8-3.8s3.8,1.7,3.8,3.8v31.5c0,2.1-1.7,3.8-3.8,3.8s-3.8-1.7-3.8-3.8V31.8L86.5,31.8z M72.1,23.3
		c0-2.1,1.7-3.8,3.8-3.8s3.8,1.7,3.8,3.8v48.5c0,2.1-1.7,3.8-3.8,3.8s-3.8-1.7-3.8-3.8V23.3L72.1,23.3z M57.7,13.9
		c0-2.1,1.7-3.8,3.7-3.8c2.1,0,3.7,1.7,3.7,3.8v67.3c0,2.1-1.7,3.8-3.7,3.8c-2.1,0-3.7-1.7-3.7-3.8L57.7,13.9L57.7,13.9z
		 M115.4,13.9c0-2.1,1.7-3.8,3.7-3.8c2.1,0,3.7,1.7,3.7,3.8v67.3c0,2.1-1.7,3.8-3.7,3.8c-2.1,0-3.7-1.7-3.7-3.8V13.9L115.4,13.9z"/>
</g>
<g>
	<path class="st0" d="M230,23.3c0-2.1,1.7-3.8,3.8-3.8s3.8,1.7,3.8,3.8v48.5c0,2.1-1.7,3.8-3.8,3.8s-3.8-1.7-3.8-3.8V23.3L230,23.3z
		 M129.1,31.8c0-2.1,1.7-3.8,3.8-3.8c2.1,0,3.8,1.7,3.8,3.8v31.5c0,2.1-1.7,3.8-3.8,3.8c-2.1,0-3.8-1.7-3.8-3.8V31.8L129.1,31.8z
		 M143.5,23.3c0-2.1,1.7-3.8,3.8-3.8s3.8,1.7,3.8,3.8v48.5c0,2.1-1.7,3.8-3.8,3.8s-3.8-1.7-3.8-3.8V23.3L143.5,23.3z M158,13.9
		c0-2.1,1.7-3.8,3.7-3.8c2.1,0,3.7,1.7,3.7,3.8v67.3c0,2.1-1.7,3.8-3.7,3.8c-2.1,0-3.7-1.7-3.7-3.8V13.9L158,13.9z M172.3,3.8
		c0-2.1,1.7-3.8,3.8-3.8s3.8,1.7,3.8,3.8v87.6c0,2.1-1.7,3.8-3.8,3.8s-3.8-1.7-3.8-3.8V3.8L172.3,3.8z M215.6,31.8
		c0-2.1,1.7-3.8,3.8-3.8s3.8,1.7,3.8,3.8v31.5c0,2.1-1.7,3.8-3.8,3.8s-3.8-1.7-3.8-3.8V31.8L215.6,31.8z M201.2,23.3
		c0-2.1,1.7-3.8,3.8-3.8s3.8,1.7,3.8,3.8v48.5c0,2.1-1.7,3.8-3.8,3.8s-3.8-1.7-3.8-3.8V23.3L201.2,23.3z M186.8,13.9
		c0-2.1,1.7-3.8,3.7-3.8c2.1,0,3.7,1.7,3.7,3.8v67.3c0,2.1-1.7,3.8-3.7,3.8c-2.1,0-3.7-1.7-3.7-3.8V13.9L186.8,13.9z M244.5,13.9
		c0-2.1,1.7-3.8,3.7-3.8c2.1,0,3.7,1.7,3.7,3.8v67.3c0,2.1-1.7,3.8-3.7,3.8c-2.1,0-3.7-1.7-3.7-3.8V13.9L244.5,13.9z"/>
</g>
<g>
	<path class="st0" d="M359.1,23.3c0-2.1,1.7-3.8,3.8-3.8s3.8,1.7,3.8,3.8v48.5c0,2.1-1.7,3.8-3.8,3.8s-3.8-1.7-3.8-3.8V23.3
		L359.1,23.3z M258.1,31.8c0-2.1,1.7-3.8,3.8-3.8c2.1,0,3.8,1.7,3.8,3.8v31.5c0,2.1-1.7,3.8-3.8,3.8c-2.1,0-3.8-1.7-3.8-3.8V31.8
		L258.1,31.8z M272.6,23.3c0-2.1,1.7-3.8,3.8-3.8s3.8,1.7,3.8,3.8v48.5c0,2.1-1.7,3.8-3.8,3.8s-3.8-1.7-3.8-3.8V23.3L272.6,23.3z
		 M287,13.9c0-2.1,1.7-3.8,3.7-3.8c2.1,0,3.7,1.7,3.7,3.8v67.3c0,2.1-1.7,3.8-3.7,3.8c-2.1,0-3.7-1.7-3.7-3.8V13.9L287,13.9z
		 M301.4,3.8c0-2.1,1.7-3.8,3.8-3.8s3.8,1.7,3.8,3.8v87.6c0,2.1-1.7,3.8-3.8,3.8s-3.8-1.7-3.8-3.8V3.8L301.4,3.8z M344.7,31.8
		c0-2.1,1.7-3.8,3.8-3.8s3.8,1.7,3.8,3.8v31.5c0,2.1-1.7,3.8-3.8,3.8s-3.8-1.7-3.8-3.8V31.8L344.7,31.8z M330.3,23.3
		c0-2.1,1.7-3.8,3.8-3.8s3.8,1.7,3.8,3.8v48.5c0,2.1-1.7,3.8-3.8,3.8s-3.8-1.7-3.8-3.8V23.3L330.3,23.3z M315.9,13.9
		c0-2.1,1.7-3.8,3.7-3.8c2.1,0,3.7,1.7,3.7,3.8v67.3c0,2.1-1.7,3.8-3.7,3.8c-2.1,0-3.7-1.7-3.7-3.8V13.9L315.9,13.9z M373.6,13.9
		c0-2.1,1.7-3.8,3.7-3.8c2.1,0,3.7,1.7,3.7,3.8v67.3c0,2.1-1.7,3.8-3.7,3.8c-2.1,0-3.7-1.7-3.7-3.8V13.9L373.6,13.9z"/>
</g>
</svg>
